<svg width="232" height="40" viewBox="0 0 232 40" fill="none" xmlns="http://www.w3.org/2000/svg">
<mask id="mask0_1341_222" style="mask-type:luminance" maskUnits="userSpaceOnUse" x="11" y="4" width="27" height="36">
<path d="M11.9453 4.35132H37.053V39.5618H11.9453V4.35132Z" fill="white"/>
</mask>
<g mask="url(#mask0_1341_222)">
<mask id="mask1_1341_222" style="mask-type:luminance" maskUnits="userSpaceOnUse" x="11" y="4" width="27" height="36">
<path d="M17.922 4.35132H37.053L31.0804 39.5087H11.9453L17.922 4.35132Z" fill="white"/>
</mask>
<g mask="url(#mask1_1341_222)">
<path d="M11.9453 4.35132H37.053V39.4637H11.9453V4.35132Z" fill="#C1FF72"/>
</g>
</g>
<mask id="mask2_1341_222" style="mask-type:luminance" maskUnits="userSpaceOnUse" x="0" y="4" width="14" height="36">
<path d="M0 4.35132H13.6283V39.5454H0V4.35132Z" fill="white"/>
</mask>
<g mask="url(#mask2_1341_222)">
<mask id="mask3_1341_222" style="mask-type:luminance" maskUnits="userSpaceOnUse" x="0" y="4" width="14" height="36">
<path d="M5.97258 4.35132H13.6283L7.65569 39.5087H0L5.97258 4.35132Z" fill="white"/>
</mask>
<g mask="url(#mask3_1341_222)">
<path d="M0 4.35132H13.6283V39.4923H0V4.35132Z" fill="#C1FF72"/>
</g>
</g>
<mask id="mask4_1341_222" style="mask-type:luminance" maskUnits="userSpaceOnUse" x="35" y="4" width="46" height="36">
<path d="M35.374 4.35132H80.2787V39.5087H35.374V4.35132Z" fill="white"/>
</mask>
<g mask="url(#mask4_1341_222)">
<mask id="mask5_1341_222" style="mask-type:luminance" maskUnits="userSpaceOnUse" x="35" y="4" width="46" height="36">
<path d="M41.3466 4.35132H80.2337L74.2612 39.5087H35.374L41.3466 4.35132Z" fill="white"/>
</mask>
<g mask="url(#mask5_1341_222)">
<path d="M35.374 4.35132H80.2787V39.5087H35.374V4.35132Z" fill="#C1FF72"/>
</g>
</g>
<path d="M90.8542 38.0087V4.3302H98.5018V38.0087H90.8542Z" fill="#C1FF72"/>
<path d="M103.418 38.0087V12.7458H108.843L109.627 15.5891C110.649 14.4044 111.891 13.522 113.353 12.9419C114.812 12.3659 116.376 12.0758 118.043 12.0758C121.344 12.0758 123.93 13.1053 125.805 15.1642C127.676 17.215 128.616 19.9848 128.616 23.4817V38.0087H121.311V24.2497C121.311 22.3869 120.87 20.9407 119.988 19.9031C119.105 18.8573 117.88 18.3344 116.311 18.3344C114.644 18.3344 113.292 18.9145 112.258 20.0665C111.233 21.2226 110.722 22.7913 110.722 24.7726V38.0087H103.418Z" fill="#C1FF72"/>
<path d="M143.727 38.6788C141.219 38.6788 139.005 38.1109 137.076 36.9793C135.156 35.8355 133.645 34.2627 132.534 32.2568C131.431 30.2551 130.883 27.9551 130.883 25.361C130.883 22.7587 131.431 20.4669 132.534 18.4815C133.645 16.4879 135.156 14.9274 137.076 13.7917C139.005 12.6478 141.219 12.0759 143.727 12.0759C145.296 12.0759 146.75 12.3128 148.09 12.7785C149.438 13.2483 150.664 13.8979 151.767 14.7231V2.4021H159.071V38.0088H153.63L152.764 35.1165C151.64 36.2399 150.313 37.1182 148.777 37.7474C147.24 38.3683 145.557 38.6788 143.727 38.6788ZM138.09 25.361C138.09 27.4118 138.735 29.0949 140.034 30.4103C141.341 31.7298 143.016 32.3876 145.067 32.3876C147.126 32.3876 148.793 31.7298 150.067 30.4103C151.35 29.0949 151.996 27.4118 151.996 25.361C151.996 23.302 151.35 21.6189 150.067 20.3117C148.793 18.9962 147.126 18.3344 145.067 18.3344C143.016 18.3344 141.341 18.9962 140.034 20.3117C138.735 21.6189 138.09 23.302 138.09 25.361Z" fill="#C1FF72"/>
<path d="M163.595 38.0088V12.7459H170.899V38.0088H163.595ZM162.532 4.57544C162.532 3.22732 162.974 2.12431 163.856 1.27459C164.738 0.424862 165.866 0 167.239 0C168.652 0 169.792 0.424862 170.654 1.27459C171.524 2.12431 171.961 3.22732 171.961 4.57544C171.961 5.92764 171.524 7.02657 170.654 7.87629C169.792 8.72601 168.652 9.15088 167.239 9.15088C165.866 9.15088 164.738 8.72601 163.856 7.87629C162.974 7.02657 162.532 5.92764 162.532 4.57544Z" fill="#C1FF72"/>
<path d="M185.134 38.6787C182.822 38.6787 180.808 38.311 179.088 37.5839C177.377 36.8444 176.049 35.815 175.101 34.4954C174.162 33.18 173.696 31.6358 173.696 29.871H180.853C180.886 30.9086 181.286 31.7298 182.062 32.3385C182.834 32.9512 183.892 33.2535 185.232 33.2535C186.384 33.2535 187.283 33.037 187.929 32.5999C188.57 32.1669 188.893 31.5786 188.893 30.8351C188.893 30.0426 188.456 29.3808 187.586 28.8579C186.724 28.3268 185.318 27.8937 183.37 27.5669C180.155 26.9909 177.789 26.0636 176.278 24.789C174.774 23.5062 174.023 21.815 174.023 19.7233C174.023 17.264 174.942 15.3726 176.784 14.053C178.635 12.7376 181.262 12.0758 184.661 12.0758C188.027 12.0758 190.662 12.803 192.569 14.2491C194.473 15.6871 195.511 17.7379 195.674 20.3933H188.697C188.631 19.4374 188.239 18.6938 187.52 18.1709C186.801 17.6399 185.829 17.3702 184.611 17.3702C183.521 17.3702 182.659 17.5827 182.03 18.0075C181.409 18.4242 181.098 18.9962 181.098 19.7233C181.098 20.4995 181.507 21.1041 182.324 21.5372C183.141 21.962 184.628 22.4032 186.785 22.8608C193.003 24.1027 196.115 26.7785 196.115 30.8841C196.115 33.2944 195.139 35.194 193.19 36.5871C191.25 37.9842 188.566 38.6787 185.134 38.6787Z" fill="#C1FF72"/>
<path d="M198.95 38.0088V12.7459H206.255V38.0088H198.95ZM197.888 4.57544C197.888 3.22732 198.329 2.12431 199.212 1.27459C200.094 0.424862 201.222 0 202.594 0C204.008 0 205.148 0.424862 206.01 1.27459C206.88 2.12431 207.317 3.22732 207.317 4.57544C207.317 5.92764 206.88 7.02657 206.01 7.87629C205.148 8.72601 204.008 9.15088 202.594 9.15088C201.222 9.15088 200.094 8.72601 199.212 7.87629C198.329 7.02657 197.888 5.92764 197.888 4.57544Z" fill="#C1FF72"/>
<path d="M220.49 38.6787C218.178 38.6787 216.164 38.311 214.444 37.5839C212.732 36.8444 211.404 35.815 210.457 34.4954C209.517 33.18 209.051 31.6358 209.051 29.871H216.209C216.241 30.9086 216.642 31.7298 217.418 32.3385C218.19 32.9512 219.248 33.2535 220.588 33.2535C221.74 33.2535 222.639 33.037 223.284 32.5999C223.926 32.1669 224.248 31.5786 224.248 30.8351C224.248 30.0426 223.811 29.3808 222.941 28.8579C222.079 28.3268 220.674 27.8937 218.725 27.5669C215.51 26.9909 213.145 26.0636 211.633 24.789C210.13 23.5062 209.378 21.815 209.378 19.7233C209.378 17.264 210.297 15.3726 212.14 14.053C213.99 12.7376 216.617 12.0758 220.016 12.0758C223.382 12.0758 226.017 12.803 227.925 14.2491C229.829 15.6871 230.866 17.7379 231.03 20.3933H224.052C223.987 19.4374 223.595 18.6938 222.876 18.1709C222.157 17.6399 221.184 17.3702 219.967 17.3702C218.876 17.3702 218.014 17.5827 217.385 18.0075C216.764 18.4242 216.454 18.9962 216.454 19.7233C216.454 20.4995 216.862 21.1041 217.679 21.5372C218.496 21.962 219.983 22.4032 222.14 22.8608C228.358 24.1027 231.471 26.7785 231.471 30.8841C231.471 33.2944 230.495 35.194 228.546 36.5871C226.605 37.9842 223.921 38.6787 220.49 38.6787Z" fill="#C1FF72"/>
</svg>
